<svg width="32" height="32" viewBox="0 0 32 32" fill="none" xmlns="http://www.w3.org/2000/svg">
<path d="M5.43889 16.2096C3.36488 12.3148 4.76547 7.37563 8.5671 5.17763C12.3687 2.97964 17.132 4.35517 19.2059 8.24993C21.2799 12.1447 23.8946 24.6241 20.0929 26.8221C16.2912 29.0202 7.51289 20.1044 5.43889 16.2096Z" fill="#D7FC7E"/>
<path d="M9.13584 6.15637C12.3245 4.31383 16.4519 5.6924 18.3364 9.22934C19.2491 10.9424 20.5169 14.8971 21.0687 18.8522C21.6448 22.9806 21.2525 25.8707 20.0194 26.5833C18.7863 27.2958 16.224 26.113 13.1651 23.4192C10.2347 20.8386 7.68342 17.6255 6.77068 15.9124C4.88614 12.3755 5.94718 7.99892 9.13584 6.15637Z" fill="#FF7956"/>
<path d="M14.9022 21.8134C16.3431 23.0874 17.5062 23.8779 18.2774 24.2794C18.2774 24.2794 19.1238 24.8199 19.2606 23.6595C19.3654 22.7709 19.3414 21.3869 19.0611 19.4122C18.4963 15.4345 17.2478 11.7803 16.5417 10.456C15.2929 8.11397 12.5703 7.19401 10.4724 8.40527C8.37461 9.61653 7.68391 12.5072 8.93272 14.8493C9.63886 16.1737 11.9578 19.2099 14.9022 21.8134Z" fill="#FF5023"/>
<path d="M13.9144 14.0258C13.4966 14.2704 13.3512 14.8339 13.5895 15.2844C13.8278 15.735 14.3597 15.902 14.7775 15.6574C15.1952 15.4129 15.3407 14.8493 15.1023 14.3988C14.864 13.9482 14.3321 13.7812 13.9144 14.0258Z" fill="#FF3501"/>
<path d="M10.2501 11.9733C9.83236 12.2179 9.68691 12.7814 9.92524 13.2319C10.1636 13.6825 10.6955 13.8495 11.1132 13.6049C11.531 13.3604 11.6764 12.7969 11.4381 12.3463C11.1997 11.8957 10.6679 11.7287 10.2501 11.9733Z" fill="#FF3501"/>
<path d="M15.3009 18.4501C14.8831 18.6947 14.7377 19.2582 14.976 19.7087C15.2144 20.1593 15.7462 20.3263 16.164 20.0817C16.5817 19.8372 16.7272 19.2737 16.4889 18.8231C16.2505 18.3725 15.7187 18.2055 15.3009 18.4501Z" fill="#FF3501"/>
<path d="M12.3121 16.6397C12.4002 16.5881 12.5068 16.5762 12.6048 16.6066C12.7031 16.6374 12.7881 16.7095 12.8386 16.8049C12.8888 16.8999 12.9025 17.0144 12.8754 17.118C12.8486 17.2221 12.7827 17.3112 12.6946 17.3628C12.6061 17.4145 12.4994 17.4265 12.4012 17.3956C12.3033 17.3645 12.2184 17.2924 12.1681 17.1974C12.1177 17.102 12.1042 16.988 12.1306 16.8842C12.1578 16.7806 12.2236 16.6915 12.3121 16.6397Z" fill="#FF3501"/>
<path d="M13.1619 9.97671C13.25 9.92513 13.3566 9.91323 13.4546 9.94359C13.5529 9.97445 13.6379 10.0465 13.6884 10.142C13.7386 10.2369 13.7523 10.3514 13.7252 10.455C13.6984 10.5592 13.6325 10.6482 13.5444 10.6998C13.4559 10.7516 13.3492 10.7636 13.251 10.7327C13.1531 10.7016 13.0682 10.6295 13.0179 10.5345C12.9674 10.439 12.954 10.325 12.9804 10.2212C13.0076 10.1176 13.0734 10.0285 13.1619 9.97671Z" fill="#FF3501"/>
<path d="M16.9035 16.1382C16.9916 16.0866 17.0982 16.0747 17.1962 16.1051C17.2945 16.1359 17.3795 16.2081 17.43 16.3035C17.4802 16.3984 17.4939 16.5129 17.4668 16.6165C17.4399 16.7207 17.3741 16.8097 17.286 16.8613C17.1975 16.9131 17.0908 16.925 16.9925 16.8942C16.8947 16.8631 16.8097 16.7909 16.7595 16.696C16.709 16.6005 16.6956 16.4865 16.722 16.3827C16.7491 16.2791 16.815 16.19 16.9035 16.1382Z" fill="#FF3501"/>
<path d="M17.3627 21.6179C17.4508 21.5664 17.5574 21.5545 17.6554 21.5848C17.7537 21.6157 17.8387 21.6878 17.8892 21.7832C17.9394 21.8782 17.9531 21.9927 17.926 22.0963C17.8992 22.2004 17.8333 22.2894 17.7452 22.341C17.6567 22.3928 17.55 22.4048 17.4518 22.3739C17.3539 22.3428 17.269 22.2706 17.2187 22.1757C17.1683 22.0802 17.1548 21.9663 17.1812 21.8624C17.2083 21.7588 17.2742 21.6697 17.3627 21.6179Z" fill="#FF3501"/>
<path d="M15.1431 9.36393C16.557 5.2454 20.9037 3.17977 24.8516 4.75016C28.7995 6.32055 30.8537 10.9324 29.4397 15.0509C28.0258 19.1694 20.9416 29.2084 16.9937 27.638C13.0459 26.0676 13.7291 13.4825 15.1431 9.36393Z" fill="#C2FB3B"/>
<path d="M17.0221 27.672C17.2509 27.764 17.4901 27.8174 17.7378 27.8364C20.9164 24.0276 28.7986 13.5859 26.6532 6.00759C26.0923 5.57667 25.4684 5.2158 24.7896 4.94284C24.1108 4.66988 23.4208 4.5025 22.7365 4.43267C16.5555 8.66298 16.2586 22.1547 16.3805 27.2906C16.5797 27.4514 16.7932 27.58 17.0221 27.672Z" fill="#9CDD05"/>
<path d="M17.2742 21.662C19.7435 18.8304 22.0574 15.1296 22.9011 12.6622C23.8453 9.90067 23.5204 6.94344 22.243 4.48645C19.1293 4.40703 16.2262 6.33614 15.133 9.53349C14.131 12.4639 13.5299 19.7332 14.7358 24.1982C15.5604 23.501 16.4091 22.6539 17.2742 21.662Z" fill="#9CDD05"/>
<path d="M28.6908 12.7507C28.6586 13.3951 28.537 14.0298 28.3293 14.6372C28.2496 14.8705 28.1461 15.1322 28.0218 15.415C27.9374 15.6069 27.7171 15.6861 27.5302 15.5919C27.3431 15.4976 27.2597 15.2656 27.3441 15.0737C27.4598 14.8106 27.5553 14.5692 27.628 14.3564C27.8121 13.8181 27.9199 13.2559 27.9484 12.6852C27.959 12.4721 28.1341 12.3408 28.3389 12.3321C28.5887 12.3215 28.6996 12.5755 28.6908 12.7507Z" fill="#9CDD05"/>
<path d="M27.2768 16.1C27.4687 16.1772 27.5219 16.4425 27.4249 16.6254C27.3699 16.729 27.3131 16.8342 27.2544 16.9411C27.1548 17.1224 26.9305 17.1805 26.7528 17.0705C26.5754 16.9607 26.5124 16.7246 26.612 16.5432C26.6689 16.4396 26.724 16.3376 26.7773 16.2371C26.8649 16.072 27.0349 16.0026 27.2768 16.1Z" fill="#9CDD05"/>
</svg>
