<svg width="32" height="32" viewBox="0 0 32 32" fill="none" xmlns="http://www.w3.org/2000/svg">
<path d="M5.86987 15.9606C3.92703 12.3121 5.23798 7.68218 8.8031 5.62093C12.3682 3.55969 16.8321 4.85078 18.775 8.49923C19.7715 10.3706 20.9314 14.3947 21.3647 18.2369C21.5809 20.1537 21.6114 21.9873 21.3656 23.4597C21.1161 24.9542 20.6054 25.9463 19.8569 26.3791C19.1084 26.8118 18.0303 26.7384 16.6812 26.1681C15.3522 25.6063 13.8752 24.6089 12.4288 23.4034C9.52935 20.9871 6.8664 17.832 5.86987 15.9606Z" stroke="#656363"/>
<path d="M18.5346 23.8437L18.5211 23.835L18.5022 23.8252C17.7765 23.4473 16.6459 22.683 15.2241 21.4259C12.3105 18.8496 10.0345 15.8584 9.36385 14.6005L9.36385 14.6005C8.2267 12.4678 8.88189 9.90321 10.7087 8.84844C12.5355 7.79367 14.9734 8.57243 16.1105 10.705C16.7812 11.9628 18.0158 15.5554 18.5746 19.4913C18.8517 21.443 18.87 22.7774 18.7726 23.6034C18.7505 23.7911 18.7104 23.8709 18.6937 23.897C18.6715 23.8961 18.6361 23.8887 18.5931 23.8716C18.5718 23.863 18.5543 23.8544 18.5435 23.8486L18.5346 23.8437Z" fill="#A49B98" stroke="#A49B98"/>
<path d="M14.0192 15.0327C13.9009 14.8091 13.986 14.5651 14.1492 14.4695C14.3123 14.374 14.5543 14.4266 14.6726 14.6502C14.7909 14.8739 14.7058 15.1179 14.5427 15.2134C14.3795 15.3089 14.1375 15.2564 14.0192 15.0327Z" stroke="#FFE1EA"/>
<path d="M10.355 12.9804C10.2366 12.7567 10.3218 12.5127 10.4849 12.4172C10.6481 12.3217 10.8901 12.3742 11.0084 12.5979C11.1267 12.8215 11.0416 13.0655 10.8784 13.1611C10.7153 13.2566 10.4733 13.204 10.355 12.9804Z" stroke="#FFE1EA"/>
<path d="M15.4057 19.4571C15.2874 19.2334 15.3726 18.9894 15.5357 18.8939C15.6988 18.7984 15.9408 18.8509 16.0591 19.0745C16.1775 19.2982 16.0923 19.5422 15.9292 19.6377C15.766 19.7332 15.5241 19.6807 15.4057 19.4571Z" stroke="#FFE1EA"/>
<path d="M12.4029 16.9916C12.403 16.9913 12.4031 16.9909 12.4031 16.9906C12.4059 16.9806 12.4102 16.9706 12.4161 16.9609L12.4914 16.9812L12.4821 17.0118L12.4816 17.0135L12.4815 17.0137L12.4569 17.095C12.4436 17.0908 12.4338 17.0848 12.4269 17.0789C12.4199 17.073 12.4138 17.0655 12.4089 17.0563C12.4038 17.0466 12.4011 17.0372 12.4 17.0281C12.399 17.0193 12.399 17.0074 12.4026 16.9926C12.4027 16.9923 12.4028 16.9919 12.4029 16.9916ZM12.4922 16.9784L12.4913 16.9782L12.4174 16.9589C12.4271 16.9437 12.441 16.9296 12.4598 16.9186C12.4787 16.9076 12.4976 16.9026 12.5153 16.9021L12.4922 16.9784ZM12.4936 16.9788L12.5165 16.902C12.5281 16.9018 12.5391 16.9035 12.5493 16.9067L12.5249 16.987L12.4936 16.9788ZM12.4836 17.0122L12.4927 16.9816L12.4932 16.9817L12.5226 16.9897L12.524 16.99L12.5147 17.0206L12.5144 17.0218L12.5143 17.0222L12.4907 17.1C12.4792 17.1002 12.4684 17.0986 12.4587 17.0956L12.4831 17.0139L12.4835 17.0126L12.4836 17.0122ZM12.5159 17.0209L12.5252 16.9904L12.6028 17.0113C12.6002 17.0212 12.5961 17.0313 12.5903 17.041C12.5901 17.0414 12.5899 17.0417 12.5896 17.0421C12.5801 17.0576 12.5661 17.0721 12.5469 17.0833C12.5278 17.0945 12.5089 17.0994 12.4917 17.1L12.5151 17.0233L12.5154 17.0225L12.5159 17.0209ZM12.5265 16.9874L12.5262 16.9873L12.5507 16.9072C12.5638 16.9114 12.5733 16.9173 12.5799 16.9229C12.5866 16.9286 12.5927 16.9359 12.5979 16.9456C12.6028 16.9549 12.6054 16.9641 12.6065 16.973C12.6076 16.9819 12.6074 16.9935 12.6038 17.0076L12.5265 16.9874Z" stroke="#FFE1EA"/>
<path d="M13.2527 10.3288C13.2527 10.3284 13.2528 10.3281 13.2529 10.3277C13.2557 10.3177 13.26 10.3077 13.2659 10.298L13.3412 10.3183L13.3319 10.349L13.3314 10.3507L13.3313 10.3509L13.3067 10.4322C13.2934 10.428 13.2836 10.4219 13.2767 10.416C13.2697 10.4101 13.2636 10.4027 13.2587 10.3934C13.2535 10.3837 13.2509 10.3744 13.2498 10.3652C13.2487 10.3565 13.2488 10.3446 13.2524 10.3297C13.2525 10.3294 13.2526 10.3291 13.2527 10.3288ZM13.342 10.3156L13.3411 10.3153L13.2672 10.296C13.2769 10.2809 13.2908 10.2668 13.3096 10.2558C13.3285 10.2448 13.3474 10.2397 13.3651 10.2392L13.342 10.3156ZM13.3434 10.3159L13.3663 10.2392C13.3779 10.239 13.3889 10.2407 13.3991 10.2439L13.3747 10.3241L13.3434 10.3159ZM13.3334 10.3494L13.3426 10.3186L13.3429 10.3187L13.3726 10.3267L13.3739 10.3271L13.3645 10.3578L13.3642 10.359L13.3641 10.3593L13.3405 10.4372C13.329 10.4374 13.3182 10.4357 13.3085 10.4327L13.3329 10.3511L13.3333 10.3497L13.3334 10.3494ZM13.3657 10.3581L13.3751 10.3274L13.4527 10.3483C13.4501 10.3583 13.4459 10.3684 13.4401 10.3781C13.4399 10.3785 13.4396 10.3789 13.4394 10.3793C13.4298 10.3948 13.4159 10.4093 13.3967 10.4205C13.3776 10.4317 13.3587 10.4366 13.3414 10.4371L13.3649 10.3604L13.3652 10.3596L13.3657 10.3581ZM13.3763 10.3245L13.376 10.3244L13.4005 10.2443C13.4136 10.2485 13.4231 10.2544 13.4297 10.2601C13.4364 10.2658 13.4425 10.2731 13.4477 10.2828C13.4526 10.292 13.4552 10.3012 13.4563 10.3102C13.4573 10.3191 13.4572 10.3307 13.4536 10.3447L13.3763 10.3245Z" stroke="#FFE1EA"/>
<path d="M17.0512 16.4173C17.07 16.4063 17.089 16.4012 17.1067 16.4007L17.0836 16.4771L17.0827 16.4768L17.0087 16.4575C17.0185 16.4424 17.0324 16.4283 17.0512 16.4173ZM17.0849 16.4774L17.1079 16.4007C17.1194 16.4005 17.1305 16.4022 17.1406 16.4054L17.1163 16.4856L17.0849 16.4774ZM17.0075 16.4594L17.0828 16.4796L17.0735 16.5105L17.073 16.5122L17.0729 16.5124L17.0483 16.5937C17.0349 16.5895 17.0252 16.5834 17.0182 16.5775C17.0113 16.5716 17.0052 16.5642 17.0002 16.5549C16.9951 16.5452 16.9924 16.5359 16.9914 16.5267C16.9903 16.518 16.9904 16.5061 16.994 16.4912C16.9941 16.4909 16.9941 16.4906 16.9942 16.4903C16.9943 16.4899 16.9944 16.4896 16.9945 16.4892C16.9973 16.4792 17.0016 16.4691 17.0075 16.4594ZM17.0842 16.48L17.0844 16.4801L17.1143 16.4881L17.1155 16.4884L17.1061 16.5193L17.1058 16.5205L17.1057 16.5208L17.0821 16.5987C17.0706 16.5989 17.0598 16.5972 17.05 16.5942L17.0744 16.5126L17.0748 16.5112L17.0749 16.5109L17.0842 16.48ZM17.1383 16.582C17.1191 16.5932 17.1003 16.5981 17.083 16.5986L17.1065 16.5219L17.1068 16.5211L17.1072 16.5196L17.1167 16.4887L17.1943 16.5096C17.1917 16.5197 17.1875 16.5299 17.1817 16.5396C17.1814 16.54 17.1812 16.5404 17.181 16.5408C17.1714 16.5564 17.1574 16.5708 17.1383 16.582ZM17.1179 16.486L17.1175 16.4859L17.1421 16.4058C17.1552 16.41 17.1647 16.416 17.1713 16.4216C17.1779 16.4272 17.1841 16.4346 17.1892 16.4443C17.1941 16.4535 17.1968 16.4627 17.1979 16.4717C17.1989 16.4806 17.1988 16.4922 17.1952 16.5062L17.1179 16.486Z" stroke="#FFE1EA"/>
<path d="M17.4535 21.9699C17.4536 21.9695 17.4537 21.9692 17.4537 21.9688C17.4565 21.9588 17.4608 21.9487 17.4668 21.939L17.542 21.9592L17.5327 21.9901L17.5322 21.9918L17.5321 21.992L17.5075 22.0733C17.4941 22.0691 17.4844 22.063 17.4775 22.0571C17.4705 22.0513 17.4644 22.0439 17.4595 22.0345C17.4544 22.0249 17.4517 22.0155 17.4506 22.0063C17.4496 21.9976 17.4496 21.9857 17.4532 21.9709C17.4533 21.9705 17.4534 21.9702 17.4535 21.9699ZM17.5428 21.9567L17.5419 21.9564L17.468 21.9371C17.4777 21.922 17.4916 21.9079 17.5104 21.8969C17.5293 21.8859 17.5482 21.8809 17.5659 21.8803L17.5428 21.9567ZM17.5442 21.957L17.5671 21.8803C17.5787 21.8801 17.5897 21.8818 17.5999 21.885L17.5755 21.9652L17.5442 21.957ZM17.5342 21.9905L17.5434 21.9596L17.5436 21.9597L17.5736 21.9677L17.5747 21.968L17.5653 21.9989L17.565 22.0001L17.5649 22.0004L17.5413 22.0783C17.5298 22.0785 17.519 22.0769 17.5093 22.0738L17.5337 21.9922L17.5341 21.9909L17.5342 21.9905ZM17.5665 21.9992L17.5759 21.9684L17.6535 21.9892C17.6509 21.9993 17.6467 22.0095 17.6409 22.0192C17.6407 22.0196 17.6404 22.02 17.6402 22.0204C17.6306 22.036 17.6166 22.0504 17.5975 22.0616C17.5784 22.0728 17.5595 22.0777 17.5423 22.0783L17.5657 22.0015L17.566 22.0007L17.5665 21.9992ZM17.5771 21.9657L17.5768 21.9656L17.6013 21.8855C17.6145 21.8896 17.6239 21.8956 17.6305 21.9012C17.6371 21.9068 17.6433 21.9142 17.6485 21.9239C17.6534 21.9332 17.656 21.9423 17.6571 21.9513C17.6582 21.9602 17.658 21.9718 17.6544 21.9858L17.5771 21.9657Z" stroke="#FFE1EA"/>
<path d="M15.1431 9.36393C16.557 5.2454 20.9037 3.17977 24.8516 4.75016C28.7995 6.32055 30.8537 10.9324 29.4397 15.0509C28.0258 19.1694 20.9416 29.2084 16.9937 27.638C13.0459 26.0676 13.7291 13.4825 15.1431 9.36393Z" fill="#928A8A"/>
<path d="M17.0221 27.6719C17.2509 27.7639 17.4901 27.8173 17.7378 27.8362C20.9164 24.0275 28.7986 13.5858 26.6532 6.00746C26.0923 5.57655 25.4684 5.21568 24.7896 4.94272C24.1108 4.66975 23.4208 4.50238 22.7365 4.43255C16.5555 8.66286 16.2586 22.1546 16.3805 27.2905C16.5797 27.4512 16.7932 27.5798 17.0221 27.6719Z" fill="#FFE1EA"/>
<path d="M17.2742 21.6618C19.7435 18.8302 22.0574 15.1294 22.9011 12.6621C23.8453 9.90055 23.5204 6.94331 22.243 4.48633C19.1293 4.40691 16.2262 6.33602 15.133 9.53337C14.131 12.4638 13.5299 19.7331 14.7358 24.198C15.5604 23.5009 16.4091 22.6538 17.2742 21.6618Z" fill="#FFE1EA"/>
<path d="M28.6908 12.7507C28.6586 13.3951 28.537 14.0298 28.3293 14.6372C28.2496 14.8705 28.1461 15.1322 28.0218 15.415C27.9374 15.6069 27.7171 15.6861 27.5302 15.5919C27.3431 15.4976 27.2597 15.2656 27.3441 15.0737C27.4598 14.8106 27.5553 14.5692 27.628 14.3564C27.8121 13.8181 27.9199 13.2559 27.9484 12.6852C27.959 12.4721 28.1341 12.3408 28.3389 12.3321C28.5887 12.3215 28.6996 12.5755 28.6908 12.7507Z" fill="#656363"/>
<path d="M27.2768 16.1001C27.4687 16.1773 27.5219 16.4426 27.4249 16.6255C27.3699 16.7291 27.3131 16.8344 27.2544 16.9412C27.1548 17.1226 26.9305 17.1806 26.7528 17.0707C26.5754 16.9608 26.5124 16.7247 26.612 16.5433C26.6689 16.4398 26.724 16.3377 26.7773 16.2372C26.8649 16.0721 27.0349 16.0027 27.2768 16.1001Z" fill="#656363"/>
</svg>
