<svg width="220" height="220" viewBox="0 0 220 220" fill="none" xmlns="http://www.w3.org/2000/svg">
<g filter="url(#filter0_d_12_1450)">
<path d="M113.211 95.737C124.967 113.069 120.984 136.409 104.315 147.867C87.6453 159.325 64.6015 154.563 52.8456 137.231C41.0896 119.9 22.3133 63.0057 38.9828 51.5473C55.6523 40.0888 101.455 78.4049 113.211 95.737Z" fill="#D7FC7E"/>
<path d="M101.981 144.427C87.1877 154.596 66.6061 150.269 56.1018 134.783C51.0143 127.282 43.3477 109.543 39.1604 91.442C34.7894 72.5476 35.5953 58.9196 41.3161 54.9872C47.0368 51.0548 59.9388 55.2603 75.8291 66.2368C91.0517 76.7522 104.673 90.3981 109.76 97.8988C120.265 113.385 116.775 134.258 101.981 144.427Z" fill="#FF7956"/>
<path d="M68.6773 76.5516C61.5091 71.5315 55.8154 68.5395 52.0879 67.1021C52.0879 67.1021 47.9581 65.0795 47.7745 70.3138C47.6341 74.3215 48.2825 80.4788 50.3473 89.1511C54.5067 106.62 61.7075 122.336 65.4921 127.916C72.185 137.783 85.152 140.64 94.3982 134.284C103.644 127.929 105.722 114.731 99.0286 104.863C95.244 99.283 83.3254 86.8105 68.6773 76.5516Z" fill="#FF5023"/>
<path d="M76.3058 110.845C78.1316 109.59 78.5603 107.023 77.2633 105.111C75.9663 103.198 73.4347 102.666 71.6088 103.921C69.783 105.176 69.3543 107.743 70.6513 109.656C71.9483 111.568 74.4799 112.101 76.3058 110.845Z" fill="#FF3501"/>
<path d="M94.0895 118.483C95.9153 117.228 96.344 114.66 95.047 112.748C93.75 110.836 91.2184 110.303 89.3925 111.558C87.5667 112.813 87.138 115.381 88.435 117.293C89.732 119.205 92.2636 119.738 94.0895 118.483Z" fill="#FF3501"/>
<path d="M68.1727 91.7053C69.9985 90.4502 70.4272 87.8826 69.1302 85.9704C67.8332 84.0582 65.3016 83.5255 63.4757 84.7805C61.6499 86.0356 61.2212 88.6032 62.5182 90.5154C63.8152 92.4276 66.3468 92.9604 68.1727 91.7053Z" fill="#FF3501"/>
<path d="M82.7121 98.5399C82.327 98.8047 81.8393 98.8999 81.3729 98.8036C80.9051 98.7052 80.481 98.4179 80.2063 98.0128C79.9329 97.6098 79.8199 97.1053 79.9006 96.633C79.9796 96.1586 80.2455 95.7358 80.6306 95.4711C81.0173 95.2053 81.5056 95.1097 81.9732 95.2083C82.4392 95.308 82.863 95.5954 83.1365 95.9986C83.4113 96.4037 83.5228 96.9061 83.4455 97.3789C83.3647 97.8511 83.099 98.274 82.7121 98.5399Z" fill="#FF3501"/>
<path d="M81.3352 128.572C80.95 128.837 80.4623 128.932 79.9959 128.836C79.5281 128.737 79.104 128.45 78.8293 128.045C78.5559 127.642 78.4429 127.137 78.5236 126.665C78.6026 126.191 78.8685 125.768 79.2536 125.503C79.6403 125.237 80.1286 125.142 80.5962 125.24C81.0622 125.34 81.486 125.627 81.7595 126.031C82.0343 126.436 82.1458 126.938 82.0685 127.411C81.9879 127.883 81.722 128.306 81.3352 128.572Z" fill="#FF3501"/>
<path d="M61.6113 102.66C61.2262 102.925 60.7384 103.02 60.2721 102.924C59.8043 102.825 59.3801 102.538 59.1054 102.133C58.8321 101.73 58.7191 101.225 58.7997 100.753C58.8788 100.279 59.1447 99.856 59.5298 99.5913C59.9164 99.3255 60.4047 99.2299 60.8724 99.3284C61.3383 99.4282 61.7623 99.7158 62.0356 100.119C62.3104 100.524 62.422 101.026 62.3447 101.499C62.2642 101.971 61.9981 102.394 61.6113 102.66Z" fill="#FF3501"/>
<path d="M57.373 78.4377C56.9881 78.7023 56.5001 78.7977 56.0338 78.7014C55.5659 78.603 55.1418 78.3155 54.8671 77.9105C54.5938 77.5076 54.4808 77.0031 54.5614 76.5307C54.6405 76.0564 54.9064 75.6336 55.2915 75.3689C55.6781 75.1031 56.1664 75.0075 56.6341 75.106C57.1 75.2058 57.524 75.4934 57.7973 75.8963C58.0721 76.3015 58.1837 76.8038 58.1064 77.2767C58.0259 77.7489 57.7597 78.1719 57.373 78.4377Z" fill="#FF3501"/>
<path d="M181.477 119.535C176.051 139.785 155.388 151.842 135.326 146.466C115.264 141.091 103.399 120.317 108.824 100.068C114.25 79.8183 145.417 28.5579 165.479 33.9336C185.541 39.3092 186.903 99.2853 181.477 119.535Z" fill="#C2FB3B"/>
<path d="M165.379 33.9066C164.227 33.5981 163.039 33.4776 161.822 33.5242C147.642 53.2403 112.833 106.834 126.014 141.411C128.909 143.136 132.086 144.496 135.501 145.411C138.916 146.326 142.347 146.737 145.717 146.69C174.42 123.337 171.072 59.5183 168.65 35.3536C167.619 34.7047 166.53 34.2151 165.379 33.9066Z" fill="#9CDD05"/>
<path d="M166.639 62.6848C155.563 77.4223 145.56 96.1796 142.312 108.299C138.677 121.864 141.326 135.653 148.459 146.552C163.73 145.209 177.252 134.495 181.461 118.789C185.318 104.395 185.66 69.7281 178.159 49.3044C174.371 53.0525 170.519 57.522 166.639 62.6848Z" fill="#9CDD05"/>
<path d="M170.651 57.4727C169.515 58.8999 168.376 60.3877 167.233 61.939C156.264 76.8309 146.318 95.7561 143.048 107.962C139.548 121.025 141.685 134.251 147.931 144.921C167.9 126.117 171.176 86.1142 170.651 57.4727Z" fill="#91CC04"/>
<path d="M113.206 109.879C113.133 106.824 113.501 103.767 114.298 100.792C114.604 99.6486 115.016 98.3593 115.522 96.9592C115.866 96.0089 116.914 95.5163 117.86 95.8595C118.808 96.2029 119.297 97.2514 118.954 98.2017C118.483 99.5042 118.102 100.694 117.823 101.736C117.116 104.373 116.791 107.081 116.855 109.786C116.879 110.796 116.071 111.51 115.074 111.662C113.858 111.847 113.226 110.71 113.206 109.879Z" fill="#9CDD05"/>
<path d="M118.852 93.4557C117.878 93.1947 117.518 91.9635 117.929 91.0404C118.162 90.5177 118.404 89.986 118.653 89.4459C119.078 88.5287 120.161 88.1289 121.077 88.5532C121.992 88.9773 122.389 90.0647 121.964 90.9819C121.722 91.5054 121.488 92.0209 121.262 92.5279C120.891 93.3611 120.079 93.7849 118.852 93.4557Z" fill="#9CDD05"/>
<g filter="url(#filter1_d_12_1450)">
<path d="M190.114 108.542H34.2814C31.75 108.542 29.6991 110.59 29.6991 113.121V126.871C29.6991 157.372 46.4234 185.268 73.3462 199.663C74.0109 200.019 74.7526 200.2 75.508 200.2H148.891C149.642 200.2 150.387 200.019 151.052 199.663C177.975 185.268 194.699 157.372 194.699 126.871V113.121C194.7 110.59 192.645 108.542 190.114 108.542Z" fill="white"/>
</g>
</g>
<defs>
<filter id="filter0_d_12_1450" x="-8" y="-8" width="240" height="240" filterUnits="userSpaceOnUse" color-interpolation-filters="sRGB">
<feFlood flood-opacity="0" result="BackgroundImageFix"/>
<feColorMatrix in="SourceAlpha" type="matrix" values="0 0 0 0 0 0 0 0 0 0 0 0 0 0 0 0 0 0 127 0" result="hardAlpha"/>
<feOffset dx="2" dy="2"/>
<feGaussianBlur stdDeviation="5"/>
<feComposite in2="hardAlpha" operator="out"/>
<feColorMatrix type="matrix" values="0 0 0 0 0 0 0 0 0 0 0 0 0 0 0 0 0 0 0.25 0"/>
<feBlend mode="normal" in2="BackgroundImageFix" result="effect1_dropShadow_12_1450"/>
<feBlend mode="normal" in="SourceGraphic" in2="effect1_dropShadow_12_1450" result="shape"/>
</filter>
<filter id="filter1_d_12_1450" x="28.6991" y="107.542" width="167" height="93.6578" filterUnits="userSpaceOnUse" color-interpolation-filters="sRGB">
<feFlood flood-opacity="0" result="BackgroundImageFix"/>
<feColorMatrix in="SourceAlpha" type="matrix" values="0 0 0 0 0 0 0 0 0 0 0 0 0 0 0 0 0 0 127 0" result="hardAlpha"/>
<feOffset/>
<feGaussianBlur stdDeviation="0.5"/>
<feComposite in2="hardAlpha" operator="out"/>
<feColorMatrix type="matrix" values="0 0 0 0 0 0 0 0 0 0 0 0 0 0 0 0 0 0 0.25 0"/>
<feBlend mode="normal" in2="BackgroundImageFix" result="effect1_dropShadow_12_1450"/>
<feBlend mode="normal" in="SourceGraphic" in2="effect1_dropShadow_12_1450" result="shape"/>
</filter>
</defs>
</svg>
